<?xml version="1.0" encoding="iso-8859-1"?>
<!-- Uploaded to: SVG Repo, www.svgrepo.com, Generator: SVG Repo Mixer Tools -->
<svg height="800px" width="800px" version="1.1" id="Layer_1" xmlns="http://www.w3.org/2000/svg" xmlns:xlink="http://www.w3.org/1999/xlink"
	 viewBox="0 0 512 512" xml:space="preserve">
<g>
	<g>
		<path d="M480,309.333c0-15.125-31.168-70.912-46.72-97.813c1.451-7.68,4.053-25.237,4.053-51.52c0-45.547-60.288-160-202.667-160
			C94.869,0,32,106.048,32,181.333c0,53.248,31.445,107.819,56.725,151.616c14.72,25.515,28.608,49.621,28.608,61.717
			c0,27.157-44.16,80.981-61.184,99.435c-2.859,3.115-3.627,7.616-1.92,11.499c1.707,3.904,5.525,6.4,9.771,6.4h234.667
			c5.888,0,10.368-3.115,10.368-9.003c3.776-7.616,41.664-28.075,76.672-33.813c26.283-4.288,62.272-10.197,62.272-42.517
			c0-14.059-4.864-21.312-8.085-26.112c-2.155-3.221-2.581-4.011-3.904-5.973c5.867,0.832,11.179-3.413,11.904-9.259
			c0.277-2.261-0.171-4.459-1.173-6.336l8.789-8.789c2.859-2.859,3.861-7.083,2.581-10.923l-7.125-21.376
			C463.253,333.675,480,324.971,480,309.333z M341.333,277.333c-4.096,0-8.213-0.555-12.309-1.429
			c-0.555-0.107-1.109-0.235-1.664-0.363c-4.075-0.981-8.128-2.24-12.117-3.904c-0.021,0.043-0.043,0.064-0.085,0.107
			c-37.867-15.467-69.824-58.475-69.824-69.077c0-5.888-4.779-10.667-10.667-10.667S224,196.779,224,202.667
			c0,21.077,33.344,63.125,73.259,83.84c-12.843,7.765-27.477,12.16-42.859,12.16c-22.272,0-43.221-8.661-58.965-24.427
			C162.027,240.832,138.688,167.509,138.688,96c0-4.309,2.603-8.213,6.592-9.856c4.011-1.6,8.576-0.725,11.627,2.304
			c15.68,15.68,37.355,20.139,62.443,25.323c28.459,5.845,60.715,12.501,86.891,38.677c19.499,19.499,30.955,67.008,19.477,100.352
			c5.227,1.856,10.453,3.2,15.637,3.2c5.888,0,10.667,4.779,10.667,10.667S347.221,277.333,341.333,277.333z"/>
	</g>
</g>
</svg>